<svg width="71" height="59" viewBox="0 0 71 59" fill="none" xmlns="http://www.w3.org/2000/svg">
<path d="M59.8824 23.8063C58.1585 19.7092 55.3821 16.1318 51.8299 13.4305C48.2778 10.7293 44.0739 8.99857 39.6373 8.41088C35.2007 7.8232 30.6863 8.39905 26.544 10.0811C22.4017 11.7631 18.7761 14.4925 16.0286 17.9973C13.2811 21.5021 11.5076 25.6599 10.8849 30.0564C10.2622 34.4529 10.8119 38.9344 12.4794 43.0545C14.1469 47.1745 16.8739 50.7892 20.3886 53.5382C23.9033 56.2872 28.083 58.0746 32.5111 58.7223C31.9311 56.6491 31.341 54.3578 30.821 51.9275C32.3338 52.9009 33.9261 53.747 35.5812 54.457C35.5812 54.457 35.7012 56.5995 35.8612 58.9901C37.6496 59.0207 39.4362 58.8644 41.1915 58.5239C41.1462 58.2746 41.1462 58.0193 41.1915 57.77C41.4815 55.9151 42.2816 52.5723 42.4416 50.4198C43.5949 49.3498 44.5733 48.1082 45.3417 46.7397L45.2817 47.1762C44.7317 51.4018 43.5816 55.9151 42.8816 57.1649C42.655 57.5786 42.376 57.962 42.0516 58.3056C45.6715 57.4633 49.0635 55.8502 51.9923 53.5781C54.9211 51.3059 57.3167 48.4292 59.013 45.1473C60.7092 41.8653 61.6656 38.2568 61.8157 34.5717C61.9658 30.8867 61.3062 27.2133 59.8824 23.8063ZM58.4124 27.5657C57.9723 27.9923 57.0623 28.2799 56.9123 26.9904C56.7623 25.7009 56.7223 24.7983 56.7223 24.7983C56.7223 24.7983 54.7922 21.3959 54.0721 21.3563C53.3521 21.3166 48.2419 24.7983 46.8918 26.3159C45.7217 27.5955 45.4917 27.5062 45.4917 29.7579C45.4917 31.4541 45.7117 37.862 45.5917 42.7621L37.4413 44.9146C34.8795 45.6438 32.2743 46.2137 29.6409 46.6207L28.6409 40.8378H28.5009L25.9308 27.774C25.9308 27.774 22.1206 26.3457 20.7205 25.9588C20.0631 25.6735 19.3372 25.5808 18.6283 25.6915C17.9195 25.8023 17.2575 26.1118 16.7203 26.5837C16.1723 27.0597 15.7341 27.6471 15.4355 28.3061C15.137 28.9651 14.9851 29.6802 14.9902 30.4027C15.2016 30.8637 15.3625 31.3459 15.4702 31.841C15.5202 32.3171 14.2702 32.2675 13.4701 32.2675C12.6701 32.2675 12.5501 30.8391 13.1801 29.1627C13.6717 27.8737 14.2809 26.632 15.0002 25.4529C15.5413 24.3997 16.2391 23.4333 17.0703 22.5862C17.0703 22.5862 17.2103 22.249 18.3204 22.3482C19.4304 22.4474 25.6007 22.7747 25.6007 22.7747L25.6507 20.523C32.3574 19.6045 39.1215 19.1603 45.8917 19.1938C45.8917 19.7989 45.8917 20.404 45.8917 21.0091C48.4561 19.8483 51.2174 19.1754 54.0321 19.0252C54.1828 19.0214 54.332 19.0548 54.4663 19.1223C54.6007 19.1898 54.7161 19.2894 54.8022 19.4121C55.1422 19.8386 57.2123 22.3879 57.4523 22.7549C58.1246 23.7078 58.7358 24.7017 59.2824 25.7307C59.0951 26.3822 58.8011 26.9988 58.4124 27.5558V27.5657Z" fill="#FDC305"/>
<path d="M56.4628 21.4951C56.9328 22.0903 57.3428 22.616 57.4628 22.7747C58.1351 23.7277 58.7463 24.7215 59.2929 25.7505C59.1027 26.3806 58.8123 26.9767 58.4329 27.5161C57.9929 27.9427 57.0828 28.2303 56.9328 26.9408C56.7828 25.6513 56.7223 24.7983 56.7223 24.7983C56.7223 24.7983 54.7922 21.3959 54.0721 21.3563C53.3521 21.3166 48.2419 24.7983 46.8918 26.3159C45.7217 27.5955 45.4917 27.5062 45.4917 29.7579C45.4917 31.2458 45.6623 36.3542 45.6223 40.8973C47.4323 41.0957 50.0925 41.5916 50.8925 42.7621C50.8925 42.7621 50.6025 35.64 58.7029 39.3697C58.7029 39.3697 58.9829 29.6587 70.1635 32.1485C66.3627 27.7223 61.7035 24.0994 56.4628 21.4951Z" fill="#F06351"/>
<path d="M45.9323 19.1938C45.9729 13.6973 45.5043 8.2087 44.5322 2.79724C44.5322 2.79724 44.3822 1.50773 43.6622 2.55918C43.068 3.81617 42.6636 5.15308 42.4621 6.5269C38.1871 6.25483 33.896 6.36771 29.6415 6.86416C28.8214 4.13635 27.4214 2.89644 26.7513 3.22377C26.0813 3.55111 26.0013 6.4773 26.0013 6.4773L25.6713 20.523C32.3846 19.6036 39.1554 19.1594 45.9323 19.1938Z" fill="#F06351"/>
<path d="M45.3515 46.7397C45.4815 45.6784 45.5515 44.2698 45.5915 42.7125L37.4415 44.865C34.8809 45.611 32.2753 46.1974 29.6409 46.6207L30.7515 51.5804C30.7515 51.6895 30.7515 51.7986 30.8215 51.9077C32.3342 52.8811 33.9264 53.7272 35.5815 54.4371C38.0002 53.2903 40.3038 51.9186 42.4615 50.3405V50.4C43.6095 49.3352 44.5844 48.1005 45.3515 46.7397Z" fill="#E55645"/>
<path d="M32.0016 16.0891C31.9516 15.9899 33.0016 16.7636 33.4116 17.0017C33.8216 17.2397 34.0216 17.4183 34.0216 17.5869C34.0216 17.7555 33.7616 17.9242 33.4016 17.9242C33.0416 17.9242 32.4816 17.8051 32.4016 17.6663C32.3216 17.5274 33.0016 17.6663 33.3416 17.6663H33.6316C33.0159 17.2195 32.4671 16.6885 32.0016 16.0891Z" fill="black"/>
<path d="M39.5019 16.1982C39.5019 16.1982 38.5019 17.4679 38.4119 17.5274C38.3219 17.5869 38.2419 17.8647 38.6019 17.8151C39.0152 17.7539 39.4231 17.661 39.8219 17.5373C39.9319 17.4778 39.8919 17.3389 39.7019 17.3588C39.5119 17.3786 39.0219 17.4084 38.7019 17.4679L39.5519 16.2081C39.5519 16.2081 39.5819 16.0891 39.5019 16.1982Z" fill="black"/>
<path d="M36.3617 22.2589C36.8253 22.0563 37.2084 21.7077 37.4517 21.267C37.7317 20.6123 37.4517 20.3643 37.0117 20.2751C36.4064 20.1655 35.7817 20.2859 35.2617 20.6123C34.8717 20.9793 34.9217 21.3364 35.2617 21.6042C35.5995 21.867 35.969 22.0869 36.3617 22.2589Z" fill="black"/>
<path d="M36.0016 23.5087C35.8868 23.7337 35.7308 23.9355 35.5416 24.1039C35.2568 24.3312 34.9067 24.4631 34.5416 24.4808C33.991 24.5344 33.4405 24.3784 33.0016 24.0444C32.8 23.9274 32.6206 23.7764 32.4716 23.598C32.3716 23.49 32.2486 23.4053 32.1116 23.35C32.1116 23.35 32.8616 27.4269 34.6816 28.0815C36.5016 28.7362 36.8416 27.3277 36.8916 26.9507C36.9525 25.8218 36.6666 24.7011 36.0716 23.7369C36.0716 23.4393 36.0516 23.6377 36.0016 23.5087Z" fill="#F06351"/>
<path d="M34.3016 24.6395C33.8336 24.5728 33.3841 24.4127 32.9802 24.1689C32.5763 23.9251 32.2264 23.6027 31.9516 23.2211C31.927 23.1938 31.9134 23.1585 31.9134 23.1219C31.9134 23.0853 31.927 23.05 31.9516 23.0227C31.9646 23.0095 31.9802 22.999 31.9973 22.9919C32.0145 22.9847 32.033 22.981 32.0516 22.981C32.0702 22.981 32.0886 22.9847 32.1058 22.9919C32.123 22.999 32.1385 23.0095 32.1516 23.0227C32.399 23.3671 32.713 23.6593 33.0752 23.8823C33.4374 24.1054 33.8407 24.2549 34.2616 24.3221C34.5946 24.2973 34.9169 24.1945 35.202 24.022C35.4871 23.8496 35.7269 23.6125 35.9016 23.3302L36.0416 23.1417L36.1416 23.36C36.1416 23.36 36.5216 24.1138 37.1416 24.1535C37.7616 24.1932 38.2016 23.7369 38.7716 22.8739C38.7928 22.8423 38.8258 22.8204 38.8633 22.813C38.9008 22.8055 38.9398 22.8132 38.9716 22.8342C39.0034 22.8553 39.0255 22.888 39.033 22.9252C39.0405 22.9624 39.0328 23.001 39.0116 23.0326C38.3449 24.0047 37.7149 24.4709 37.1216 24.4312C36.8922 24.4011 36.6726 24.3204 36.4788 24.1951C36.285 24.0698 36.122 23.9031 36.0016 23.7071C35.8059 23.9781 35.5518 24.2025 35.2577 24.3638C34.9636 24.5251 34.637 24.6193 34.3016 24.6395Z" fill="black"/>
<path d="M36.2616 37.9909C38.3327 37.9909 40.0116 36.3255 40.0116 34.2712C40.0116 32.2168 38.3327 30.5514 36.2616 30.5514C34.1905 30.5514 32.5116 32.2168 32.5116 34.2712C32.5116 36.3255 34.1905 37.9909 36.2616 37.9909Z" fill="#FDC305"/>
<path d="M41.2316 31.2458L38.1016 32.5452L39.2516 26.9607L31.7516 36.6419L34.8816 35.3425L33.7316 40.937L41.2316 31.2458ZM33.8416 35.0449L38.0016 29.6785L37.1916 33.6463L39.1916 32.8329L35.0016 38.2091L35.8116 34.2414L33.8416 35.0449Z" fill="#111111"/>
<path d="M32.4416 33.5868C33.0601 33.5868 33.5616 33.0894 33.5616 32.4758C33.5616 31.8622 33.0601 31.3648 32.4416 31.3648C31.823 31.3648 31.3216 31.8622 31.3216 32.4758C31.3216 33.0894 31.823 33.5868 32.4416 33.5868Z" fill="#111111"/>
<path d="M38.9619 37.614C39.3982 37.614 39.7519 37.2631 39.7519 36.8304C39.7519 36.3976 39.3982 36.0467 38.9619 36.0467C38.5256 36.0467 38.1719 36.3976 38.1719 36.8304C38.1719 37.2631 38.5256 37.614 38.9619 37.614Z" fill="#111111"/>
<path d="M39.922 35.4615C40.1153 35.4615 40.272 35.3061 40.272 35.1143C40.272 34.9226 40.1153 34.7671 39.922 34.7671C39.7287 34.7671 39.572 34.9226 39.572 35.1143C39.572 35.3061 39.7287 35.4615 39.922 35.4615Z" fill="#111111"/>
<path d="M45.8823 20.9892C44.077 22.6034 42.3769 24.3295 40.792 26.1572C39.2134 27.9717 37.4318 29.6023 35.4818 31.0177C35.2617 30.4919 33.8517 29.5099 33.8517 29.5099C33.8517 29.5099 30.7115 27.3773 28.6514 25.7009C27.5378 24.7809 26.4886 23.7866 25.5113 22.7251L23.5112 22.616C26.3983 26.7991 30.6281 29.8897 35.5118 31.3847C36.3718 31.2458 38.7919 29.5298 40.602 28.1311C42.7435 26.3247 44.7489 24.3654 46.6023 22.2688C47.1005 21.6816 47.4868 21.0094 47.7424 20.285C46.6023 20.6619 45.8823 20.9892 45.8823 20.9892Z" fill="#F06351"/>
<path d="M65.2227 3.47176L56.7627 12.8356L55.5428 10.8616L63.6927 0L65.2227 3.47176Z" fill="#FDC305"/>
<path d="M62.6531 17.1207L68.1931 13.0439L67.4131 9.33406L62.0131 14.1052L62.6531 17.1207Z" fill="#FDC305"/>
<path d="M59.923 48.9716L66.053 52.1259L69.063 49.8048L62.373 47.077L59.923 48.9716Z" fill="#FDC305"/>
<path d="M1.95 5.92182L5.02 2.58894L14.31 11.5163L13.09 13.7779L1.95 5.92182Z" fill="#FDC305"/>
<path d="M7.38 16.1486L2.68 13.0439L0.28 16.8827L5.43 19.2633L7.38 16.1486Z" fill="#FDC305"/>
<path d="M13.91 52.1259L9.36 55.4489L12.16 59L16.18 55.0124L13.91 52.1259Z" fill="#FDC305"/>
<path d="M25.9308 27.774C25.9308 27.774 22.1206 26.3457 20.7205 25.9588C20.0631 25.6735 19.3372 25.5808 18.6283 25.6915C17.9195 25.8023 17.2575 26.1118 16.7203 26.5837C16.1723 27.0597 15.7341 27.6471 15.4355 28.3061C15.137 28.9651 14.9851 29.6802 14.9902 30.4027C15.2016 30.8637 15.3625 31.3459 15.4702 31.841C15.5202 32.3171 14.2702 32.2675 13.4701 32.2675C12.6701 32.2675 12.5501 30.8391 13.1801 29.1627C13.6717 27.8737 14.2809 26.632 15.0002 25.4529C9.54995 28.27 0 34.7771 0 34.7771C2.73182 34.6137 5.47292 34.6933 8.1904 35.0151C13.4407 35.5409 13.1907 39.6474 13.1907 39.6474C15.0373 39.1425 16.9192 38.7745 18.8209 38.5464C20.941 38.4075 21.091 40.6493 21.091 40.6493L21.6211 44.4781C22.4259 43.6145 23.3134 42.8305 24.2712 42.1372C25.5057 41.157 27.0776 40.6942 28.6514 40.8477L25.9308 27.774Z" fill="#F06351"/>
</svg>
